HIERARCHY
ROOT Hips
{
    OFFSET   0.000000   0.000000   0.000000
    CHANNELS 6 Xposition Yposition Zposition Zrotation Xrotation Yrotation
    JOINT Chest
    {
        OFFSET   0.000000   8.007240   0.000000
        CHANNELS 3 Zrotation Xrotation Yrotation
        JOINT Chest2
        {
            OFFSET   0.000000  22.077100   0.000000
            CHANNELS 3 Zrotation Xrotation Yrotation
            JOINT Neck
            {
                OFFSET   0.000000  23.254800   0.000000
                CHANNELS 3 Zrotation Xrotation Yrotation
                JOINT Head
                {
                    OFFSET   0.000000  14.370000   1.956600
                    CHANNELS 3 Zrotation Xrotation Yrotation
                    End Site
                    {
                        OFFSET   0.000000  19.566000   0.000000
                    }
                }
            }
            JOINT LeftCollar
            {
                OFFSET   3.911900  19.017000  -0.467064
                CHANNELS 3 Zrotation Xrotation Yrotation
                JOINT LeftShoulder
                {
                    OFFSET  10.383700   0.000000   0.000000
                    CHANNELS 3 Zrotation Xrotation Yrotation
                    JOINT LeftElbow
                    {
                        OFFSET  26.662100   0.001476   0.000517
                        CHANNELS 3 Zrotation Xrotation Yrotation
                        JOINT LeftWrist
                        {
                            OFFSET  28.869000  -0.000025  -0.000106
                            CHANNELS 3 Zrotation Xrotation Yrotation
                            JOINT LeftFinger0
                            {
                                OFFSET   2.044660  -2.323460   3.252850
                                CHANNELS 3 Zrotation Xrotation Yrotation
                                JOINT LeftFinger01
                                {
                                    OFFSET   3.088130   0.000000   0.000000
                                    CHANNELS 3 Zrotation Xrotation Yrotation
                                    JOINT LeftFinger02
                                    {
                                        OFFSET   2.639460   0.000000   0.000000
                                        CHANNELS 3 Zrotation Xrotation Yrotation
                                        End Site
                                        {
                                            OFFSET   2.582190   0.000000   0.000000
                                        }
                                    }
                                }
                            }
                            JOINT LeftFinger1
                            {
                                OFFSET   8.364480   0.000000   3.252850
                                CHANNELS 3 Zrotation Xrotation Yrotation
                                JOINT LeftFinger11
                                {
                                    OFFSET   4.646930   0.000000   0.000000
                                    CHANNELS 3 Zrotation Xrotation Yrotation
                                    JOINT LeftFinger12
                                    {
                                        OFFSET   2.323460   0.000000   0.000000
                                        CHANNELS 3 Zrotation Xrotation Yrotation
                                        End Site
                                        {
                                            OFFSET   2.273050   0.000000   0.000000
                                        }
                                    }
                                }
                            }
                            JOINT LeftFinger2
                            {
                                OFFSET   8.364490   0.000015   1.078090
                                CHANNELS 3 Zrotation Xrotation Yrotation
                                JOINT LeftFinger21
                                {
                                    OFFSET   5.111620   0.000000   0.000000
                                    CHANNELS 3 Zrotation Xrotation Yrotation
                                    JOINT LeftFinger22
                                    {
                                        OFFSET   2.788160   0.000016   0.000000
                                        CHANNELS 3 Zrotation Xrotation Yrotation
                                        End Site
                                        {
                                            OFFSET   2.727660   0.000000   0.000000
                                        }
                                    }
                                }
                            }
                            JOINT LeftFinger3
                            {
                                OFFSET   7.899780   0.000017  -1.078090
                                CHANNELS 3 Zrotation Xrotation Yrotation
                                JOINT LeftFinger31
                                {
                                    OFFSET   4.646930   0.000000   0.000000
                                    CHANNELS 3 Zrotation Xrotation Yrotation
                                    JOINT LeftFinger32
                                    {
                                        OFFSET   2.323470   0.000000   0.000000
                                        CHANNELS 3 Zrotation Xrotation Yrotation
                                        End Site
                                        {
                                            OFFSET   2.273050   0.000000   0.000000
                                        }
                                    }
                                }
                            }
                            JOINT LeftFinger4
                            {
                                OFFSET   7.435090   0.000000  -3.252850
                                CHANNELS 3 Zrotation Xrotation Yrotation
                                JOINT LeftFinger41
                                {
                                    OFFSET   3.717550   0.000000   0.000000
                                    CHANNELS 3 Zrotation Xrotation Yrotation
                                    JOINT LeftFinger42
                                    {
                                        OFFSET   1.858770   0.000000   0.000000
                                        CHANNELS 3 Zrotation Xrotation Yrotation
                                        End Site
                                        {
                                            OFFSET   1.818440   0.000000   0.000000
                                        }
                                    }
                                }
                            }
                        }
                    }
                }
            }
            JOINT RightCollar
            {
                OFFSET  -3.911900  19.017000  -0.467063
                CHANNELS 3 Zrotation Xrotation Yrotation
                JOINT RightShoulder
                {
                    OFFSET -10.383700   0.000019   0.000000
                    CHANNELS 3 Zrotation Xrotation Yrotation
                    JOINT RightElbow
                    {
                        OFFSET -26.662100   0.001175   0.000102
                        CHANNELS 3 Zrotation Xrotation Yrotation
                        JOINT RightWrist
                        {
                            OFFSET -28.869000   0.000016  -0.000079
                            CHANNELS 3 Zrotation Xrotation Yrotation
                            JOINT RightFinger0
                            {
                                OFFSET  -2.044660  -2.323490   3.252850
                                CHANNELS 3 Zrotation Xrotation Yrotation
                                JOINT RightFinger01
                                {
                                    OFFSET  -3.088140   0.000000   0.000000
                                    CHANNELS 3 Zrotation Xrotation Yrotation
                                    JOINT RightFinger02
                                    {
                                        OFFSET  -2.639460   0.000000   0.000000
                                        CHANNELS 3 Zrotation Xrotation Yrotation
                                        End Site
                                        {
                                            OFFSET  -2.582190   0.000000   0.000000
                                        }
                                    }
                                }
                            }
                            JOINT RightFinger1
                            {
                                OFFSET  -8.364480   0.000000   3.252850
                                CHANNELS 3 Zrotation Xrotation Yrotation
                                JOINT RightFinger11
                                {
                                    OFFSET  -4.646930   0.000000   0.000000
                                    CHANNELS 3 Zrotation Xrotation Yrotation
                                    JOINT RightFinger12
                                    {
                                        OFFSET  -2.323470   0.000000   0.000000
                                        CHANNELS 3 Zrotation Xrotation Yrotation
                                        End Site
                                        {
                                            OFFSET  -2.273050   0.000000   0.000000
                                        }
                                    }
                                }
                            }
                            JOINT RightFinger2
                            {
                                OFFSET  -8.364480   0.000000   1.078090
                                CHANNELS 3 Zrotation Xrotation Yrotation
                                JOINT RightFinger21
                                {
                                    OFFSET  -5.111620   0.000000   0.000000
                                    CHANNELS 3 Zrotation Xrotation Yrotation
                                    JOINT RightFinger22
                                    {
                                        OFFSET  -2.788160   0.000000   0.000000
                                        CHANNELS 3 Zrotation Xrotation Yrotation
                                        End Site
                                        {
                                            OFFSET  -2.727660   0.000000   0.000000
                                        }
                                    }
                                }
                            }
                            JOINT RightFinger3
                            {
                                OFFSET  -7.899780   0.000000  -1.078090
                                CHANNELS 3 Zrotation Xrotation Yrotation
                                JOINT RightFinger31
                                {
                                    OFFSET  -4.646930   0.000000   0.000000
                                    CHANNELS 3 Zrotation Xrotation Yrotation
                                    JOINT RightFinger32
                                    {
                                        OFFSET  -2.323470   0.000000   0.000000
                                        CHANNELS 3 Zrotation Xrotation Yrotation
                                        End Site
                                        {
                                            OFFSET  -2.273050   0.000000   0.000000
                                        }
                                    }
                                }
                            }
                            JOINT RightFinger4
                            {
                                OFFSET  -7.435090   0.000000  -3.252850
                                CHANNELS 3 Zrotation Xrotation Yrotation
                                JOINT RightFinger41
                                {
                                    OFFSET  -3.717550   0.000000   0.000000
                                    CHANNELS 3 Zrotation Xrotation Yrotation
                                    JOINT RightFinger42
                                    {
                                        OFFSET  -1.858770   0.000000   0.000000
                                        CHANNELS 3 Zrotation Xrotation Yrotation
                                        End Site
                                        {
                                            OFFSET  -1.818440   0.000000   0.000000
                                        }
                                    }
                                }
                            }
                        }
                    }
                }
            }
        }
    }
    JOINT LeftHip
    {
        OFFSET   9.783040   0.000000   0.000000
        CHANNELS 3 Zrotation Xrotation Yrotation
        JOINT LeftKnee
        {
            OFFSET   0.000032 -41.789100  -0.002222
            CHANNELS 3 Zrotation Xrotation Yrotation
            JOINT LeftAnkle
            {
                OFFSET   0.000087 -41.133200  -0.000135
                CHANNELS 3 Zrotation Xrotation Yrotation
                JOINT LeftToe
                {
                    OFFSET   0.000000  -6.358960  14.674500
                    CHANNELS 3 Zrotation Xrotation Yrotation
                    End Site
                    {
                        OFFSET   0.000000   0.000000   3.913200
                    }
                }
            }
        }
    }
    JOINT RightHip
    {
        OFFSET  -9.783040   0.000000   0.000000
        CHANNELS 3 Zrotation Xrotation Yrotation
        JOINT RightKnee
        {
            OFFSET   0.000047 -41.789100  -0.000896
            CHANNELS 3 Zrotation Xrotation Yrotation
            JOINT RightAnkle
            {
                OFFSET  -0.000117 -41.133300  -0.000248
                CHANNELS 3 Zrotation Xrotation Yrotation
                JOINT RightToe
                {
                    OFFSET   0.000000  -6.358970  14.674500
                    CHANNELS 3 Zrotation Xrotation Yrotation
                    End Site
                    {
                        OFFSET   0.000000   0.000000   3.913200
                    }
                }
            }
        }
    }
}
MOTION
Frames: 4
Frame Time:   0.016667
 -0.604175  89.556200  -0.282402  -2.667350  -4.929770   0.021902   1.224310   3.605980  -0.439894   2.483800   7.201620  -0.959922   0.429267  -0.437184   0.002881   0.703416  -0.884300   9.987200  -6.820110   2.934830  -0.397804 -73.125400  10.709300  -8.197360  -2.069300 -11.036200 -11.202200   6.976350  -8.478370  12.197800  39.899600  24.082600 -59.635200 -21.844200   0.006377   0.004381  -5.922100   0.004467   0.002303 -35.585900   5.918100  -8.192660 -29.463000   0.003248  -0.000000 -20.624100   0.002222  -0.001216 -29.818300   2.118900  -3.691860 -44.829900  -0.003408  -0.001839 -29.856700   0.002225  -0.001231 -33.667200  -2.213540   3.317370 -50.597300   0.001218  -0.001618 -33.697800   0.001968  -0.001066 -46.061600  -3.044800   2.930150 -69.209300   0.001500  -0.012251 -46.093300   0.002097   0.000259   6.930400   0.709688   9.032740  71.799500  11.506600   7.418630  -0.536868  -2.829160   9.690510 -12.290500  -6.174590   1.310070 -42.136800  43.025500  82.232300  32.305600   0.008683  -0.005431  11.152300   0.001523  -0.007855  31.098400   4.883490   8.034020  25.722400   0.004924  -0.002659  18.004200  -0.006264   0.000167  27.942400   1.428460   2.690660  31.851700   0.001755  -0.009517  21.220400  -0.000353  -0.004132  27.917500   1.427240   2.691310  31.687100   0.000550  -0.002409  21.103600   0.004235  -0.006931  35.112600   0.209532   0.302129  52.672700   0.005093  -0.011055  35.078000   0.000092  -0.005190   3.116100   9.150330   1.690960   0.470426   0.741816   6.262110  -2.599070  -4.034810   1.825490  -0.000000   0.000000  -0.000000   1.354350   3.473020  -2.327590   1.505490   4.591860  -6.824570  -4.465530  -1.700830  -4.841520  -0.000000   0.000000   0.000000
 -0.609883  89.556200  -0.282659  -2.666770  -4.929920   0.022996   1.226130   3.608240  -0.439943   2.487480   7.206110  -0.960085   0.429074  -0.439174   0.002892   0.703454  -0.889140   9.981250  -6.816390   2.929650  -0.391589 -73.122800  10.737600  -8.217730  -2.064100 -11.039700 -11.195500   6.945120  -8.464850  12.209500  39.899900  24.077700 -59.604600 -21.851700   0.006376   0.004375  -5.925820   0.004469   0.002304 -36.417800   5.942760  -7.991420 -30.136500   0.003249   0.000000 -21.095400   0.002220  -0.001215 -30.178200   2.138770  -3.675790 -45.370300  -0.003407  -0.001837 -30.216600   0.002224  -0.001230 -33.834700  -2.154540   3.210590 -50.842800   0.001218  -0.001613 -33.861300   0.001968  -0.001064 -46.136100  -3.071460   2.947960 -69.322900   0.001499  -0.012255 -46.168900   0.002097   0.000259   6.924100   0.704768   9.034150  71.786200  11.526600   7.427650  -0.535025  -2.840190   9.688540 -12.266200  -6.188240   1.319020 -42.144200  43.029800  82.229300  32.309800   0.008684  -0.005424  11.154600   0.001520  -0.007852  31.095700   4.893450   8.049830  25.722400   0.004923  -0.002657  18.004500  -0.006264   0.000168  27.941100   1.441820   2.715870  31.850900   0.001754  -0.009522  21.217200  -0.000353  -0.004132  27.925000   1.440940   2.716330  31.739000   0.000550  -0.002409  21.138100   0.004231  -0.006929  35.112600   0.209643   0.302268  52.678100   0.005090  -0.011056  35.078000   0.000092  -0.005191   3.115980   9.151620   1.690850   0.475372   0.741296   6.262050  -2.598400  -4.034000   1.825820  -0.000000   0.000000   0.000000   1.357730   3.474820  -2.327430   1.505480   4.589590  -6.825550  -4.470390  -1.700730  -4.841500   0.000000   0.000000   0.000000
 -0.619399  89.556300  -0.282915  -2.665250  -4.930140   0.026857   1.229690   3.612100  -0.440279   2.494660   7.213780  -0.961177   0.428880  -0.443531   0.002903   0.703734  -0.899120   9.972160  -6.811420   2.921970  -0.380339 -73.118100  10.788100  -8.248760  -2.057230 -11.052800 -11.180300   6.895670  -8.449930  12.229600  39.900400  24.071900 -59.560600 -21.863500   0.006371   0.004360  -5.931730   0.004472   0.002305 -37.713900   5.988520  -7.688440 -31.186500   0.003249  -0.000000 -21.829200   0.002214  -0.001212 -30.706800   2.177600  -3.659760 -46.164500  -0.003403  -0.001831 -30.745600   0.002223  -0.001228 -34.092200  -2.058850   3.039400 -51.220200   0.001218  -0.001601 -34.112600   0.001968  -0.001057 -46.245400  -3.110560   2.974060 -69.489300   0.001499  -0.012264 -46.279800   0.002097   0.000260   6.915490   0.696949   9.038370  71.767400  11.556300   7.436930  -0.532354  -2.856070   9.686620 -12.229400  -6.212150   1.337600 -42.150700  43.038600  82.225000  32.320700   0.008688  -0.005417  11.160300   0.001516  -0.007847  31.092300   4.904940   8.069740  25.722400   0.004922  -0.002650  18.004800  -0.006263   0.000169  27.939200   1.460740   2.751690  31.844900   0.001750  -0.009527  21.208700  -0.000357  -0.004134  27.933100   1.460370   2.751880  31.795400   0.000549  -0.002406  21.175700   0.004227  -0.006926  35.112600   0.209829   0.302465  52.683500   0.005085  -0.011058  35.078000   0.000090  -0.005191   3.115590   9.160000   1.690780   0.482177   0.737657   6.261980  -2.597320  -4.028320   1.826150  -0.000000   0.000000   0.000000   1.363410   3.477030  -2.327190   1.505660   4.587310  -6.828920  -4.478570  -1.700620  -4.841490   0.000000   0.000000   0.000000
 -0.626990  89.556300  -0.282874  -2.662810  -4.930230   0.034198   1.233970   3.615700  -0.442165   2.503430   7.220910  -0.965419   0.428879  -0.449495   0.002885   0.704148  -0.911770   9.966810  -6.810300   2.917130  -0.369089 -73.112800  10.839000  -8.268340  -2.055630 -11.082200 -11.158400   6.860120  -8.448620  12.247000  39.903500  24.074600 -59.538700 -21.870100   0.006360   0.004339  -5.935030   0.004470   0.002302 -38.581200   6.037290  -7.510880 -31.891000   0.003248   0.000000 -22.307600   0.002203  -0.001208 -30.976700   2.223210  -3.693400 -46.572400  -0.003398  -0.001823 -31.017200   0.002223  -0.001222 -34.257800  -1.987320   2.915030 -51.462600   0.001218  -0.001582 -34.274100   0.001968  -0.001045 -46.301600  -3.130730   2.987450 -69.574900   0.001500  -0.012275 -46.336900   0.002098   0.000259   6.912550   0.690274   9.046460  71.758700  11.574600   7.432200  -0.530523  -2.864340   9.700240 -12.208100  -6.235250   1.362330 -42.145200  43.049100  82.229800  32.339000   0.008694  -0.005433  11.169500   0.001515  -0.007839  31.087800   4.906490   8.073450  25.719100   0.004913  -0.002640  18.002700  -0.006259   0.000168  27.938400   1.468590   2.766900  31.823800   0.001745  -0.009527  21.193700  -0.000366  -0.004138  27.933500   1.468450   2.766970  31.800000   0.000546  -0.002396  21.178800   0.004230  -0.006924  35.112600   0.210022   0.302552  52.676600   0.005084  -0.011058  35.078000   0.000084  -0.005186   3.114600   9.187090   1.691010   0.488053   0.693402   6.262160  -2.596650  -4.006310   1.822200  -0.000000   0.000000   0.000000   1.368520   3.477510  -2.327080   1.506190   4.587490  -6.836090  -4.486040  -1.704870  -4.844890   0.000000   0.000000  -0.000000
